<svg width="32" height="32" viewBox="0 0 32 32" fill="none" xmlns="http://www.w3.org/2000/svg">
<g clip-path="url(#clip0_3_20)">
<g clip-path="url(#clip1_3_20)">
<rect width="32" height="32" fill="white"/>
<path d="M20.5625 12.7812C20.375 10.6562 18.9375 9.25 16.5312 9.25C13.4062 9.25 11.625 11.6562 11.625 15.6875C11.625 19.9375 13.4375 22.125 16.5 22.125C18.7812 22.125 20.25 20.875 20.5625 18.875L26.5938 18.9375C26.2812 22.8125 22.875 27.3125 16.375 27.3125C10.1562 27.3125 5.5 23.1875 5.5 15.6875C5.5 8.15625 10.2812 4.0625 16.375 4.0625C22 4.0625 26.0938 7.21875 26.5938 12.7812H20.5625Z" fill="black"/>
</g>
</g>
<defs>
<clipPath id="clip0_3_20">
<rect width="32" height="32" fill="white"/>
</clipPath>
<clipPath id="clip1_3_20">
<rect width="32" height="32" fill="white"/>
</clipPath>
</defs>
</svg>
